<svg xmlns="http://www.w3.org/2000/svg" xmlns:svgjs="http://svgjs.com/svgjs" xmlns:xlink="http://www.w3.org/1999/xlink" width="288" height="288"><path fill="#87ddfd" d="M 144,0 C 5,0 0,5 0,144 0,283 5,288 144,288 283,288 288,283 288,144 288,5 283,0 144,0 Z" transform="translate(30.01 30.01) scale(.7916)"/><svg xmlns="http://www.w3.org/2000/svg" width="288" height="288" transform="matrix(.94 0 0 .94 8.64 8.64)" viewBox="0 0 24 24"><ellipse cx="1.998" cy="2.471" fill="#09467d" class="color09467D svgShape" rx="1.998" ry="1.971"/><path fill="#09467d" d="M24 10.853c0-3.353-2.755-6.071-6.154-6.072h-6.667c-3.398.001-6.152 2.719-6.153 6.072v6.577c0 3.353 2.755 6.071 6.154 6.071h6.667c3.399 0 6.154-2.718 6.154-6.071v-6.577zM9.702 12.471c-1.379 0-2.497-1.103-2.497-2.463s1.118-2.463 2.497-2.463 2.497 1.103 2.497 2.463c-.001 1.36-1.118 2.463-2.497 2.463zm7.968 9.032c-2.206 0-3.995-1.765-3.995-3.941s1.789-3.941 3.995-3.941 3.995 1.765 3.995 3.941-1.789 3.941-3.995 3.941z" class="color09467D svgShape"/></svg></svg>