<svg xmlns="http://www.w3.org/2000/svg"
     xmlns:svgjs="http://svgjs.com/svgjs"
     xmlns:xlink="http://www.w3.org/1999/xlink"
     width="288"
     height="288">
  <svg xmlns="http://www.w3.org/2000/svg"
       width="288"
       height="288"
       viewBox="0 0 24 24">
    <path fill="COLOR"
          d="M2.415 5.271C1.083 5.271 0 4.201 0 2.886S1.083.5 2.415.5 4.83 1.57 4.83 2.886 3.746 5.271 2.415 5.271zm0-3.771C1.635 1.5 1 2.122 1 2.886s.635 1.385 1.415 1.385S3.83 3.65 3.83 2.886 3.194 1.5 2.415 1.5zm15.188 22h-6.389c-3.527 0-6.397-2.829-6.397-6.307v-6.291c.001-3.477 2.871-6.307 6.397-6.308h6.389C21.13 4.596 24 7.426 24 10.902v6.291c0 3.478-2.87 6.307-6.397 6.307zM11.214 5.595c-2.975.001-5.396 2.382-5.397 5.308v6.291c0 2.926 2.421 5.307 5.397 5.307h6.389c2.976 0 5.397-2.381 5.397-5.307v-6.291c0-2.926-2.421-5.307-5.397-5.308h-6.389zm6.22 15.995c-2.387 0-4.329-1.915-4.329-4.27s1.942-4.27 4.329-4.27 4.328 1.915 4.328 4.27-1.941 4.27-4.328 4.27zm0-7.539c-1.835 0-3.329 1.467-3.329 3.27s1.493 3.27 3.329 3.27c1.835 0 3.328-1.467 3.328-3.27s-1.493-3.27-3.328-3.27zM9.797 12.95c-1.595 0-2.893-1.281-2.893-2.856 0-1.574 1.298-2.855 2.893-2.855 1.595 0 2.893 1.281 2.893 2.855 0 1.575-1.297 2.856-2.893 2.856zm0-4.712c-1.043 0-1.893.832-1.893 1.855s.849 1.856 1.893 1.856 1.893-.833 1.893-1.856-.849-1.855-1.893-1.855z" />
  </svg>
</svg>
